<?xml version="1.0" encoding="utf-8" ?><svg xmlns="http://www.w3.org/2000/svg" xmlns:xlink="http://www.w3.org/1999/xlink" width="1024" height="1024" viewBox="0 0 1024 1024"><path fill="#FCFCFC" d="M0 0L1024 0L1024 1024L0 1024L0 0Z"/><defs><linearGradient id="gradient_0" gradientUnits="userSpaceOnUse" x1="206.31773" y1="540.74109" x2="633.09094" y2="257.39627"><stop offset="0" stop-color="#153156"/><stop offset="1" stop-color="#377192"/></linearGradient></defs><path fill="url(#gradient_0)" d="M590.783 284.302C587.177 275.504 584.602 267.991 588.332 258.334C590.735 252.113 596.705 246.639 602.899 244.154C608.849 241.815 615.495 241.996 621.309 244.656C634.969 250.768 639.313 266.619 633.312 279.62C629.086 290.052 616.924 290.732 610.151 297.65C602.519 305.443 597.942 318.762 588.807 325.54C561.641 345.697 524.888 348.603 495.333 363.719C483.444 369.8 477.934 396.214 466.123 403.954C457.631 410.032 441.671 414.444 431.596 417.911C423.701 420.629 412.036 425.355 404.184 426.63C403.341 444.358 396.442 459.493 383.202 471.4C382.072 472.403 380.918 473.379 379.741 474.326C389.995 486.025 399.749 497.336 406.075 511.64C406.858 513.411 408.506 517.402 409.87 518.358C433.007 512.573 445.273 505.55 461.859 488.36C472.946 475.765 484.986 454.337 488.298 437.976C491.714 425.234 492.033 424.734 492.189 411.197C491.766 396.324 492.293 380.048 507.961 372.537C514.227 369.577 521.424 369.277 527.914 371.704C535.588 374.562 541.322 380.96 544.118 388.442C545.067 390.979 545.815 393.729 546.964 396.121L546.97 396.609C547.426 402.788 546.925 417.301 547.499 420.847C546.24 421.905 546.341 422.767 546.175 424.801C541.963 476.376 520.888 529.872 481.339 564.537C463.642 580.049 442.354 590.919 419.984 598.197C419.21 644.59 399.941 688.754 366.458 720.876C364.163 723.079 351.713 734.228 349.308 734.534C348.526 734.486 347.501 734.479 346.844 734.94C340.648 739.293 329.013 744.595 323.642 749.433C302.659 758.596 282.774 763.85 259.668 764.227C251.265 764.363 239.33 766.302 234.181 757.619C232.664 755.023 232.234 751.933 232.984 749.021C236.165 736.674 253.34 739.946 263.311 739.446C284.794 738.227 305.71 732.087 324.442 721.499C323.804 698.939 321.739 680.34 314.353 658.682C302.649 624.366 281.837 595.83 264.827 564.309C260.3 555.92 254.654 546.073 251.3 537.313C246.599 525.013 243.94 512.027 243.428 498.869C242.404 472.152 250.144 452.973 267.989 433.747C246.218 419.634 238.434 411.898 225.904 388.867C201.819 395.906 181.178 398.316 156.868 390.55C158.655 388.222 160.781 385.954 162.662 383.681C175.951 367.618 190.244 352.213 203.616 336.257C203.257 323.878 203.038 316.91 205.025 304.57C197.928 300.402 170.864 271.316 165.399 263.324C177.991 263.529 196.368 267.557 209.229 268.828C212.731 269.174 221.686 271.176 224.403 270.868C242.058 254.775 261.82 249.353 285.544 250.361C304.862 251.183 321.842 258.315 338.956 266.664C344.31 269.276 352.701 273.768 358.259 274.877C364.073 276.037 373.359 275.451 379.533 275.496C394.782 275.608 411.108 274.392 426.24 275.195C416.291 287.35 391.665 306.458 377.73 314.306C384.357 327.701 389.766 341.913 400.72 352.569C403.531 355.304 406.823 358.225 409.863 360.688C430.391 377.32 412.516 383.278 400.537 391.957C400.891 394.897 401.307 400.309 402.942 402.485C411.378 399.738 419.837 397.061 428.318 394.454C434.482 392.522 443.057 390.158 448.554 386.936C462.566 378.722 466.059 352.956 479.662 345.21C497.872 334.84 522.715 329.05 542.572 322.188C553.758 318.323 564.201 315.785 573.562 307.989C580.396 302.298 586.101 293.514 590.066 285.736C590.31 285.261 590.549 284.783 590.783 284.302Z"/><path fill="#FCFCFC" d="M377.115 435.648C384.851 432.646 396.251 429.153 404.184 426.63C403.341 444.358 396.442 459.493 383.202 471.4C382.072 472.403 380.918 473.379 379.741 474.326C389.995 486.025 399.749 497.336 406.075 511.64C406.858 513.411 408.506 517.402 409.87 518.358C433.007 512.573 445.273 505.55 461.859 488.36C463.624 490.955 465.048 493.491 466.895 496.182C469.553 500.055 473.677 504.942 475.944 508.821C459.598 525.545 438.726 537.136 415.888 542.171C418.704 551.095 419.047 563.361 419.867 572.704C411.971 575.885 403.318 577.8 394.938 579.148C365.323 582.831 333.686 582.53 307.503 566.152C288.848 554.491 275.644 535.841 270.841 514.373C266.63 496.032 268.158 476.507 278.236 460.338C290.713 440.32 313.56 433.702 335.99 435.329C352.955 436.559 360.185 439.365 377.115 435.648Z"/><path fill="#2A597A" d="M391.039 544.997C389.027 545.023 387.014 545.004 385.003 544.937C354.976 543.708 318.978 528.431 296.02 508.094C287.362 499.511 298.223 484.008 309.257 488.664C315.104 491.131 320.856 496.501 326.281 500.061C342.657 510.808 359.083 516.18 378.23 519.334C387.966 521.61 400.284 521.033 409.87 518.358C433.007 512.573 445.273 505.55 461.859 488.36C463.624 490.955 465.048 493.491 466.895 496.182C469.553 500.055 473.677 504.942 475.944 508.821C459.598 525.545 438.726 537.136 415.888 542.171C405.944 544.718 400.103 543.822 391.039 544.997Z"/><path fill="#63BA66" d="M377.115 435.648C384.851 432.646 396.251 429.153 404.184 426.63C403.341 444.358 396.442 459.493 383.202 471.4C382.072 472.403 380.918 473.379 379.741 474.326C389.995 486.025 399.749 497.336 406.075 511.64C406.858 513.411 408.506 517.402 409.87 518.358C400.284 521.033 387.966 521.61 378.23 519.334C379.973 519.245 379.987 519.464 381.358 518.614C380.379 514.396 368.39 499.566 365.217 496.561C349.94 482.087 332.662 469.192 361.115 456.096C367.861 452.991 375.815 443.714 377.737 436.418L377.115 435.648Z"/><path fill="#63BA66" d="M391.039 544.997C400.103 543.822 405.944 544.718 415.888 542.171C418.704 551.095 419.047 563.361 419.867 572.704C411.971 575.885 403.318 577.8 394.938 579.148C394.352 567.952 393.918 555.821 391.039 544.997Z"/><path fill="#FCFCFC" d="M356.729 327.759C358.809 325.626 374.818 315.722 377.73 314.306C384.357 327.701 389.766 341.913 400.72 352.569C403.531 355.304 406.823 358.225 409.863 360.688C430.391 377.32 412.516 383.278 400.537 391.957C400.891 394.897 401.307 400.309 402.942 402.485C396.942 404.74 384.791 408.882 378.62 410.215C373.789 410.985 367.195 412.849 362.339 412.551C336.698 410.976 316.557 406.055 291.575 417.364C290.813 417.133 290.055 416.89 289.3 416.635C272.446 410.931 257.952 396.872 250.136 381.006C262.339 377.052 276.874 369.889 288.515 364.377C312.106 353.207 334.382 341.298 356.729 327.759Z"/><path fill="#63BA66" d="M356.729 327.759C358.809 325.626 374.818 315.722 377.73 314.306C384.357 327.701 389.766 341.913 400.72 352.569C403.531 355.304 406.823 358.225 409.863 360.688C430.391 377.32 412.516 383.278 400.537 391.957C400.891 394.897 401.307 400.309 402.942 402.485C396.942 404.74 384.791 408.882 378.62 410.215C378.335 397.746 373.236 393.645 373.478 382.205C376.78 377.368 380.89 375.165 385.823 372.306C368.824 356.96 366.085 346.322 356.729 327.759Z"/><defs><linearGradient id="gradient_1" gradientUnits="userSpaceOnUse" x1="475.47272" y1="426.03101" x2="514.19904" y2="445.85474"><stop offset="0" stop-color="#4D9A6B"/><stop offset="1" stop-color="#3C7981"/></linearGradient></defs><path fill="url(#gradient_1)" d="M492.189 411.197C491.766 396.324 492.293 380.048 507.961 372.537C514.227 369.577 521.424 369.277 527.914 371.704C535.588 374.562 541.322 380.96 544.118 388.442C545.067 390.979 545.815 393.729 546.964 396.121L546.97 396.609L546.311 397.303C544.539 394.748 539.371 374.011 532.829 377.666C532.385 378.351 531.156 380.382 531.076 381.23C530.81 384.043 520.866 394.01 521.119 395.487C525.301 419.867 521.392 445.696 513.978 469.241C512.787 473.024 511.019 479.532 508.455 481.647C503.988 492.412 500.562 500.535 494.597 510.628C478.391 537.723 453.836 558.834 424.617 570.795C423.04 571.449 421.457 572.085 419.867 572.704C419.047 563.361 418.704 551.095 415.888 542.171C438.726 537.136 459.598 525.545 475.944 508.821C473.677 504.942 469.553 500.055 466.895 496.182C465.048 493.491 463.624 490.955 461.859 488.36C472.946 475.765 484.986 454.337 488.298 437.976C491.714 425.234 492.033 424.734 492.189 411.197Z"/><path fill="#FCFCFC" d="M475.944 508.821C498.733 486.258 512.514 455.557 516.398 423.759C517.466 415.008 516.454 405.574 517.453 396.932C517.618 395.508 517.971 395.466 518.745 395.025L519.689 395.875C526.304 422.629 517.805 456.323 508.455 481.647C503.988 492.412 500.562 500.535 494.597 510.628C478.391 537.723 453.836 558.834 424.617 570.795C423.04 571.449 421.457 572.085 419.867 572.704C419.047 563.361 418.704 551.095 415.888 542.171C438.726 537.136 459.598 525.545 475.944 508.821Z"/><path fill="#63BA66" d="M419.984 598.197C419.21 644.59 399.941 688.754 366.458 720.876C364.163 723.079 351.713 734.228 349.308 734.534C348.526 734.486 347.501 734.479 346.844 734.94C340.648 739.293 329.013 744.595 323.642 749.433C302.659 758.596 282.774 763.85 259.668 764.227C251.265 764.363 239.33 766.302 234.181 757.619C232.664 755.023 232.234 751.933 232.984 749.021C236.165 736.674 253.34 739.946 263.311 739.446C284.794 738.227 305.71 732.087 324.442 721.499C328.68 720.315 347.653 707.043 348.729 703.213L349.025 703.555L349.695 703.553C375.521 680.018 392.775 638.713 394.496 603.949C393.923 604.22 417.765 598.771 419.984 598.197Z"/><path fill="#FCFCFC" d="M254.589 280.483C277.741 271.535 300.824 275.598 322.417 286.475C333.032 291.822 342.87 296.522 354.161 300.321C342.72 308.04 323.611 317.798 311.202 324.213C279.599 340.548 246.858 357.316 212.202 365.932C216.598 360.805 227.11 349.242 229.866 343.945C229.524 337.188 229.26 330.428 229.075 323.665C230.613 303.235 236.441 290.629 254.589 280.483Z"/><path fill="#FCFCFC" d="M311.522 596.924C337.846 604.671 367.193 609.116 394.496 603.949C392.775 638.713 375.521 680.018 349.695 703.553L349.025 703.555L348.729 703.213C345.133 666.332 330.533 628.461 311.522 596.924Z"/><defs><linearGradient id="gradient_2" gradientUnits="userSpaceOnUse" x1="210.92203" y1="267.09195" x2="199.07718" y2="305.40323"><stop offset="0" stop-color="#62B06F"/><stop offset="1" stop-color="#336079"/></linearGradient></defs><path fill="url(#gradient_2)" d="M165.399 263.324C177.991 263.529 196.368 267.557 209.229 268.828C212.731 269.174 221.686 271.176 224.403 270.868C226.72 271.8 229.16 272.405 231.583 273.002C239.447 274.94 246.89 278.067 254.589 280.483C236.441 290.629 230.613 303.235 229.075 323.665C229.057 322.795 229.011 319.237 228.733 318.555C225.015 309.454 215.251 301.456 205.025 304.57C197.928 300.402 170.864 271.316 165.399 263.324Z"/><path fill="#FCFCFC" d="M609.052 260.259C611.836 259.557 614.781 260.406 616.764 262.48C618.748 264.554 619.464 267.534 618.639 270.283C617.814 273.032 615.576 275.126 612.778 275.766C608.518 276.739 604.268 274.103 603.247 269.854C602.226 265.606 604.815 261.327 609.052 260.259Z"/><defs><linearGradient id="gradient_3" gradientUnits="userSpaceOnUse" x1="354.56839" y1="982.12433" x2="554.94189" y2="676.19934"><stop offset="0" stop-color="#152C4D"/><stop offset="1" stop-color="#295685"/></linearGradient></defs><path fill="url(#gradient_3)" d="M279.993 867.526C286.193 865.298 291.882 861.838 297.535 858.518C374.695 813.199 430.805 730.626 430.757 639.503C430.752 630.883 429.966 621.988 430.717 613.396C431.451 604.997 443.111 600.602 449.379 606.146C454.394 610.637 453.854 621.256 454.014 627.677C554.228 649.303 602.234 712.194 620.234 810.555C630.057 799.684 639.542 787.514 649.159 776.4C653.306 771.607 657.181 766.221 663.973 765.822C667.149 765.658 670.261 766.75 672.637 768.863C677.018 772.771 677.428 780.468 673.876 784.695C658.19 803.369 643.282 822.808 627.357 841.275C620.673 849.027 611.685 862.782 600.768 862.64C588.779 862.483 584.583 842.986 579.293 834.593C569.139 813.436 559.417 794.665 543.16 777.296C515.769 747.929 477.724 730.803 437.579 729.77C423.951 776.112 381.905 827.354 344.63 857.139C337.963 862.392 331.059 867.336 323.94 871.955C319.007 875.18 312.866 878.747 308.454 882.478L340.862 882.853C349.678 882.925 367.54 881.237 373.559 888.215C378.138 893.524 375.624 902.895 369.481 905.846C367.075 907.002 363.679 907.003 361.015 907.229C339.744 907.689 318.432 907.15 297.149 907.07L262.07 906.972C254.132 906.939 246.648 907.023 238.782 905.933C227.741 904.403 223.61 891.386 230.097 883.317C237.701 873.86 247.839 863.941 256.644 855.422C290.999 822.179 311.92 796.401 323.642 749.433C329.013 744.595 340.648 739.293 346.844 734.94C347.501 734.479 348.526 734.486 349.308 734.534C348.39 736.978 347.429 744.008 346.95 747.01C345.755 754.496 344.583 761.165 342.734 768.525C332.405 809.63 309.268 837.846 279.993 867.526Z"/><defs><linearGradient id="gradient_4" gradientUnits="userSpaceOnUse" x1="506.75616" y1="772.73303" x2="561.65747" y2="675.75189"><stop offset="0" stop-color="#52A069"/><stop offset="1" stop-color="#6FCB6A"/></linearGradient></defs><path fill="url(#gradient_4)" d="M454.014 627.677C554.228 649.303 602.234 712.194 620.234 810.555C614.283 816.836 610.385 823.537 603.825 829.791C600.373 822.997 597.208 816.061 594.336 809.002C594.599 805.408 592.631 798.473 591.702 794.724C573.643 721.849 530.077 669.384 454.029 654.409C453.744 646.368 454.223 636.385 454.014 627.677Z"/><path fill="#FCFCFC" d="M454.029 654.409C530.077 669.384 573.643 721.849 591.702 794.724C592.631 798.473 594.599 805.408 594.336 809.002C586.633 794.483 579.09 781.161 568.587 768.328C545.026 739.746 513.044 719.33 477.2 709.99C466.264 707.242 457.734 706.266 446.612 705.178C449.989 685.736 452.973 674.984 454.029 654.409Z"/><defs><linearGradient id="gradient_5" gradientUnits="userSpaceOnUse" x1="612.45117" y1="473.01498" x2="767.78314" y2="287.67154"><stop offset="0" stop-color="#1B3C79"/><stop offset="1" stop-color="#4F9D7A"/></linearGradient></defs><path fill="url(#gradient_5)" d="M546.964 396.121C550.574 394.637 567.321 390.712 572.332 389.283L636.777 370.762C670.988 360.935 705.076 350.419 739.362 340.866C766.071 333.423 790.354 324.461 818.448 328.179C817.762 329.676 817.007 333.827 817.32 335.57C818.507 337.325 824.268 345.683 825.596 346.554C830.266 349.62 844.315 350.095 836.837 359.53C835.462 359.632 834.811 359.247 833.565 359.282C826.726 356.541 819.587 353.238 812.234 352.295C794.826 350.064 776.597 356.19 760.006 360.987L720.038 372.693L680.572 383.899C671.969 386.288 661.432 388.937 653.046 391.779C660.774 395.024 666.321 397.597 673.649 401.82C678.304 404.503 684.85 408.682 689.494 410.853C698.56 408.505 706.444 406.948 715.22 412.145C721.108 415.678 725.283 421.476 726.766 428.18C731.698 450.628 706.92 468.205 687.713 454.651C678.546 448.182 676.888 439.325 676.214 429.036C672.044 426.086 664.824 422.567 660.221 420.264C644.388 412.343 621.701 401.706 603.73 405.369C585.391 409.107 565.829 416.453 547.499 420.847C546.925 417.301 547.426 402.788 546.97 396.609L546.964 396.121Z"/><path fill="#FCFCFC" d="M699.553 426.204C702.316 425.206 705.403 425.778 707.624 427.7C709.845 429.622 710.854 432.594 710.263 435.472C709.672 438.349 707.572 440.683 704.773 441.573C700.559 442.913 696.048 440.635 694.626 436.448C693.204 432.261 695.395 427.707 699.553 426.204Z"/><defs><linearGradient id="gradient_6" gradientUnits="userSpaceOnUse" x1="964.71619" y1="147.36475" x2="898.79205" y2="197.84872"><stop offset="0" stop-color="#72D965"/><stop offset="1" stop-color="#56A173"/></linearGradient></defs><path fill="url(#gradient_6)" d="M829.31 69.6341C855.735 70.8353 884.775 82.8985 907.258 96.1595C954.93 124.029 989.496 169.784 1003.27 223.259C1008 241.922 1009.98 261.859 1009.74 281.081C1009.59 293.132 1009.13 304.059 995.421 307.079C974.59 306.694 980.04 283.207 979.983 269.127C979.83 257.734 978.449 246.391 975.863 235.294C962.681 178.005 920.289 127.981 864.772 108.036C858.457 105.776 852.033 103.83 845.525 102.206C834.913 99.6227 816.779 100.084 814.592 86.7635C813.957 82.9762 814.9 79.0942 817.201 76.0202C820.365 71.7223 824.32 70.3441 829.31 69.6341Z"/><defs><linearGradient id="gradient_7" gradientUnits="userSpaceOnUse" x1="822.25952" y1="374.73727" x2="754.76617" y2="473.54489"><stop offset="0" stop-color="#79DE63"/><stop offset="1" stop-color="#4F9970"/></linearGradient></defs><path fill="url(#gradient_7)" d="M818.891 374.662C825.923 374.064 832.641 380.067 834.206 386.374C837.78 400.775 845.104 423.363 845.874 437.756C837.331 456.254 812.309 451.208 798.941 459.889C792.436 464.114 779.494 481.422 772.832 488.39C771.958 485.89 771.261 482.923 770.577 480.334L767.941 467.546C757.902 467.351 750.581 467.941 746.719 456.629C742.402 443.984 740.084 429.92 737.174 416.884C735.95 411.459 735.261 402.577 739.8 398.295C746.65 391.832 762.284 389.827 771.219 387.342L800.771 379.056C806.173 377.572 813.498 375.328 818.891 374.662Z"/><path fill="#FCFCFC" d="M764.93 421.457C773.518 421.378 776.281 428.925 768.877 432.603C761.36 432.708 757.834 426.724 764.93 421.457Z"/><path fill="#FCFCFC" d="M811.299 409.371C813.962 408.005 817.229 408.992 818.691 411.604C820.153 414.216 819.285 417.517 816.727 419.072C814.988 420.129 812.811 420.152 811.05 419.132C809.289 418.112 808.225 416.212 808.277 414.178C808.329 412.143 809.488 410.3 811.299 409.371Z"/><path fill="#FCFCFC" d="M788.043 415.772C789.917 415.067 792.027 415.43 793.559 416.72C795.091 418.01 795.807 420.027 795.432 421.994C795.057 423.962 793.649 425.573 791.75 426.209C788.886 427.168 785.782 425.657 784.772 422.811C783.761 419.965 785.216 416.834 788.043 415.772Z"/><defs><linearGradient id="gradient_8" gradientUnits="userSpaceOnUse" x1="665.43121" y1="287.33664" x2="725.04669" y2="184.59502"><stop offset="0" stop-color="#2C5AA4"/><stop offset="1" stop-color="#4295D1"/></linearGradient></defs><path fill="url(#gradient_8)" d="M723.892 187.154C732.39 186.154 737.113 189.354 740.043 197.475C744.769 210.779 747.329 224.432 750.736 238.159C758.549 269.632 720.381 261.321 703.606 272.689C693.774 279.352 687.297 290.1 678.828 298.257C678.544 295.909 678.036 293.298 677.634 290.944C676.819 286.902 676.159 282.439 675.391 278.308C656.144 283.069 654.918 272.211 650.555 256.668C648.17 248.097 645.7 239.682 643.95 230.96C641.874 221.905 641.057 210.029 651.928 206.279C661.856 202.855 672.924 200.425 683.175 197.724C696.735 194.151 710.106 189.801 723.892 187.154Z"/><path fill="#FCFCFC" d="M718.087 220.798C720.955 219.648 724.217 220.978 725.464 223.805C726.711 226.632 725.492 229.938 722.71 231.28C720.823 232.189 718.591 231.998 716.888 230.78C715.184 229.563 714.28 227.513 714.53 225.434C714.78 223.355 716.144 221.578 718.087 220.798Z"/><path fill="#FCFCFC" d="M672.52 233.002C680.684 233.397 681.513 241.824 673.991 244.077C665.417 242.7 665.842 237.092 672.52 233.002Z"/><path fill="#FCFCFC" d="M695.119 227.248C698.019 226.44 701.029 228.112 701.876 231C702.723 233.888 701.092 236.921 698.215 237.807C696.319 238.39 694.256 237.908 692.816 236.546C691.375 235.183 690.779 233.15 691.255 231.225C691.732 229.3 693.209 227.78 695.119 227.248Z"/><defs><linearGradient id="gradient_9" gradientUnits="userSpaceOnUse" x1="916.70422" y1="177.89095" x2="863.38416" y2="228.65253"><stop offset="0" stop-color="#4E9B76"/><stop offset="1" stop-color="#35697D"/></linearGradient></defs><path fill="url(#gradient_9)" d="M819.86 127.129C838.142 126.645 858.256 134.359 874.291 142.903C908.817 161.43 934.686 192.774 946.329 230.187C951.102 246 953.301 261.882 952.708 278.39C952.334 288.817 951.605 298.16 939.781 301.414C919.395 302.556 924.48 282.568 923.516 269.225C922.752 258.651 920.874 248.131 917.839 237.964C907.035 201.986 879.462 173.476 843.865 161.476C835.636 158.774 820.273 156.811 813.587 153.347C801.846 147.264 804.842 130.009 819.86 127.129Z"/><path fill="#438972" d="M781.651 304.404C757.98 312.313 734.363 320.387 710.803 328.624L633.211 354.866L592.797 369.013C584.651 371.883 576.547 374.875 568.241 377.247C561.235 379.249 553.696 378.749 550.809 370.95C549.598 367.666 549.782 364.03 551.318 360.885C552.608 358.283 554.792 356.174 557.458 355.082C565.456 351.807 574.106 349.19 582.315 346.415L633.412 329.277L766.86 282.905C768.476 285.055 769.413 287.653 770.489 290.149C773.374 296.844 776.163 299.86 781.651 304.404Z"/><defs><linearGradient id="gradient_10" gradientUnits="userSpaceOnUse" x1="481.32867" y1="528.88989" x2="627.75806" y2="463.56308"><stop offset="0" stop-color="#153656"/><stop offset="1" stop-color="#31689B"/></linearGradient></defs><path fill="url(#gradient_10)" d="M594.521 422.713C598.553 421.653 604.77 419.504 608.343 421.665C610.722 423.104 612.088 425.227 612.601 427.917C613.707 433.708 612.465 440.75 611.764 446.52C608.529 473.127 601.058 496.959 586.139 519.418C566.551 548.906 538.55 563.297 504.48 569.606C501.777 570.107 499.55 570.606 496.742 570.837C503.885 561.694 511.772 550.544 520.291 542.738C526.777 536.795 537.131 533.236 544.28 528.022C567.619 511.888 579.77 485.511 586.868 458.875C589.827 451.753 593.138 430.913 594.521 422.713Z"/><defs><linearGradient id="gradient_11" gradientUnits="userSpaceOnUse" x1="832.96796" y1="254.70758" x2="871.53387" y2="212.7914"><stop offset="0" stop-color="#1E3D65"/><stop offset="1" stop-color="#2A5977"/></linearGradient></defs><path fill="url(#gradient_11)" d="M810.654 185.053C818.996 184.556 827.357 185.617 835.31 188.182C856.053 194.804 875.864 212.261 885.779 231.549C893.459 246.488 905.124 285.125 884.545 294.678C880.957 295.222 878.341 295.203 874.77 293.797C864.478 289.746 867.817 272.815 866.139 263.844C865.082 258.195 864.047 254.242 861.717 249.025C854.824 233.593 841.983 221.051 825.664 216.08C819.977 214.337 814.603 213.766 808.974 211.695C801.24 208.851 797.284 201.459 800.639 193.637C802.622 189.016 806.023 186.771 810.654 185.053Z"/><defs><linearGradient id="gradient_12" gradientUnits="userSpaceOnUse" x1="884.1803" y1="338.88852" x2="843.53015" y2="383.8486"><stop offset="0" stop-color="#56AB78"/><stop offset="1" stop-color="#4D957B"/></linearGradient></defs><path fill="url(#gradient_12)" d="M818.448 328.179C837.154 331.763 850.663 340.183 865.345 351.762C875.337 347.862 884.833 345.338 895.364 349.763C902.951 352.951 909.442 360.267 912.283 367.969C915.229 375.941 914.862 384.761 911.264 392.462C907.615 400.283 901.096 405.828 892.985 408.652C885.372 411.346 876.991 410.837 869.759 407.241C862.071 403.543 856.228 396.865 853.585 388.753C851.642 382.763 851.612 377.37 851.57 371.141C844.251 365.219 840.287 363.824 833.565 359.282C834.811 359.247 835.462 359.632 836.837 359.53C844.315 350.095 830.266 349.62 825.596 346.554C824.268 345.683 818.507 337.325 817.32 335.57C817.007 333.827 817.762 329.676 818.448 328.179Z"/><path fill="#FCFCFC" d="M879.743 369.152C883.231 368.107 887.011 369.016 889.643 371.532C892.274 374.048 893.351 377.784 892.464 381.315C891.576 384.846 888.861 387.628 885.352 388.601C880.005 390.085 874.46 386.985 872.922 381.653C871.384 376.32 874.427 370.744 879.743 369.152Z"/><path fill="#63BA66" d="M777.337 278.766C778.28 260.483 790.208 241.986 810.37 242.941C818.809 243.373 826.728 247.151 832.373 253.439C838.293 259.977 841.323 268.627 840.777 277.43C839.795 295.536 824.962 308.749 806.8 307.513C800.083 307.055 795.004 305.129 789.131 301.977C786.729 302.705 783.943 303.459 781.651 304.404C776.163 299.86 773.374 296.844 770.489 290.149C769.413 287.653 768.476 285.055 766.86 282.905C770.545 281.554 773.762 280.366 777.337 278.766Z"/><path fill="#FCFCFC" d="M807.374 264.715C813.093 263.595 818.651 267.276 819.851 272.979C821.051 278.682 817.447 284.291 811.761 285.57C808.012 286.414 804.099 285.174 801.52 282.324C798.942 279.475 798.097 275.458 799.309 271.812C800.521 268.165 803.603 265.453 807.374 264.715Z"/><path fill="#63BA66" d="M541.385 500.136C544.714 488.423 548.608 473.928 553.415 462.897C555.047 459.07 560.942 452.421 562.145 448.917C569.894 426.337 572.691 428.467 594.521 422.713C593.138 430.913 589.827 451.753 586.868 458.875L586.276 457.843C585.347 458.199 579.739 468.006 578.229 470.116C574.336 475.519 569.963 480.558 565.162 485.174C558.323 491.709 550.236 496.798 541.385 500.136Z"/><path fill="#163252" d="M488.298 437.976C476.805 440.677 447.225 452.835 437.464 448.046C434.986 446.83 433.205 444.728 432.438 442.073C431.517 438.889 431.656 434.842 433.304 431.913C434.262 430.209 435.804 428.712 437.534 427.799C443.343 424.732 450.681 423.444 456.992 421.549C468.719 418.028 480.32 414.229 492.189 411.197C492.033 424.734 491.714 425.234 488.298 437.976Z"/></svg>